<svg width="174" height="174" viewBox="0 0 174 174" fill="none" xmlns="http://www.w3.org/2000/svg">
<path fill-rule="evenodd" clip-rule="evenodd" d="M87 165.164C130.169 165.164 165.164 130.169 165.164 87C165.164 43.8312 130.169 8.83594 87 8.83594C43.8312 8.83594 8.83594 43.8312 8.83594 87C8.83594 130.169 43.8312 165.164 87 165.164ZM87 174C135.049 174 174 135.049 174 87C174 38.9512 135.049 0 87 0C38.9512 0 0 38.9512 0 87C0 135.049 38.9512 174 87 174Z" fill="white" style="fill:white;fill-opacity:1;"/>
<path fill-rule="evenodd" clip-rule="evenodd" d="M165.079 87C165.079 66.6591 148.589 50.1695 128.249 50.1695C107.908 50.1695 91.418 66.6591 91.418 87C91.418 107.341 107.908 123.831 128.249 123.831C148.589 123.831 165.079 107.341 165.079 87ZM173.915 87C173.915 61.7791 153.469 41.3335 128.249 41.3335C103.028 41.3335 82.582 61.7791 82.582 87C82.582 112.221 103.028 132.667 128.249 132.667C153.469 132.667 173.915 112.221 173.915 87Z" fill="white" style="fill:white;fill-opacity:1;"/>
<path fill-rule="evenodd" clip-rule="evenodd" d="M82.497 87C82.497 66.659 66.0074 50.1694 45.6665 50.1694C25.3255 50.1694 8.83594 66.6591 8.83594 87C8.83594 107.341 25.3255 123.831 45.6665 123.831C66.0074 123.831 82.497 107.341 82.497 87ZM91.333 87C91.333 61.7791 70.8874 41.3335 45.6665 41.3335C20.4456 41.3335 0 61.7791 0 87C0 112.221 20.4456 132.666 45.6665 132.666C70.8874 132.666 91.333 112.221 91.333 87Z" fill="white" style="fill:white;fill-opacity:1;"/>
<path fill-rule="evenodd" clip-rule="evenodd" d="M87.1274 165.122C107.468 165.122 123.958 148.632 123.958 128.291C123.958 107.95 107.468 91.4605 87.1274 91.4605C66.7864 91.4605 50.2968 107.95 50.2968 128.291C50.2968 148.632 66.7864 165.122 87.1274 165.122ZM87.1274 173.958C112.348 173.958 132.794 153.512 132.794 128.291C132.794 103.07 112.348 82.6245 87.1274 82.6245C61.9065 82.6245 41.4609 103.07 41.4609 128.291C41.4609 153.512 61.9065 173.958 87.1274 173.958Z" fill="white" style="fill:white;fill-opacity:1;"/>
<path fill-rule="evenodd" clip-rule="evenodd" d="M87.1274 82.5395C107.468 82.5395 123.958 66.0499 123.958 45.709C123.958 25.3681 107.468 8.87846 87.1274 8.87846C66.7864 8.87846 50.2968 25.3681 50.2968 45.709C50.2968 66.0499 66.7864 82.5395 87.1274 82.5395ZM87.1274 91.3755C112.348 91.3755 132.794 70.9299 132.794 45.709C132.794 20.4881 112.348 0.042522 87.1274 0.042522C61.9065 0.042522 41.4609 20.4881 41.4609 45.709C41.4609 70.9299 61.9065 91.3755 87.1274 91.3755Z" fill="white" style="fill:white;fill-opacity:1;"/>
</svg>
