<svg width="73" height="21" viewBox="0 0 73 21" fill="none" xmlns="http://www.w3.org/2000/svg">
<path d="M7.00091 20.3686C3.48694 20.3686 0.892008 18.6667 0 15.5922L3.2707 14.3294C3.78428 16.2784 5.24393 17.349 7.32528 17.349C9.27148 17.349 10.4338 16.4706 10.4338 15.0157C10.4338 10.7608 0.837947 12.7647 0.837947 6.03921C0.837947 2.88235 3.1896 0.686274 7.21716 0.686274C10.623 0.686274 12.9206 2.36078 13.6234 4.91372L10.3527 6.17647C9.86615 4.47451 8.7579 3.67843 7.05497 3.67843C5.24393 3.67843 4.29786 4.55686 4.29786 5.76471C4.29786 9.77255 13.9207 7.74118 13.9207 14.9333C13.9207 18.1725 11.2717 20.3686 7.00091 20.3686Z" fill="white" style="fill:white;fill-opacity:1;"/>
<path d="M19.6056 7.21961C20.5787 6.06666 22.0654 5.27059 23.8494 5.27059V8.53725C21.3626 8.53725 19.7948 9.88235 19.7948 11.8314V20.0667H16.3619V5.6H19.6056V7.21961Z" fill="white" style="fill:white;fill-opacity:1;"/>
<path d="M27.9048 13.9451C28.3643 16.1137 30.0132 17.4314 32.1486 17.4314C34.0948 17.4314 35.122 16.6902 35.7707 15.4L38.4738 17.1569C37.3925 18.9412 35.5004 20.4235 32.0405 20.4235C27.4994 20.4235 24.526 17.1569 24.526 12.8471C24.526 8.64706 27.7426 5.27059 31.8242 5.27059C36.3113 5.27059 39.0414 8.83922 39.0414 12.5451C39.0414 13.0941 39.0144 13.6431 38.9603 13.9451H27.9048ZM27.9048 11.502H35.7437C35.3652 9.33333 33.9056 8.01569 31.9053 8.01569C29.9051 8.01569 28.3373 9.27843 27.9048 11.502Z" fill="white" style="fill:white;fill-opacity:1;"/>
<path d="M52.1715 0H55.6044V20.0667H52.4148V18.2274C51.3065 19.6 49.7117 20.3961 47.7114 20.3961C43.6298 20.3961 40.6565 17.1569 40.6565 12.8471C40.6565 8.5098 43.5487 5.27059 47.6304 5.27059C49.5225 5.27059 51.0632 5.98431 52.1715 7.19216V0ZM48.171 17.3216C50.6307 17.3216 52.3066 15.4824 52.3066 12.8471C52.3066 10.1843 50.6307 8.37255 48.171 8.37255C45.8193 8.37255 44.0894 10.2667 44.0894 12.8471C44.0894 15.4274 45.8193 17.3216 48.171 17.3216Z" fill="white" style="fill:white;fill-opacity:1;"/>
<path d="M69.8104 5.6H73V20.0667H69.8104V18.1176C68.7562 19.5451 67.1614 20.3961 65.1071 20.3961C61.0255 20.3961 58.0521 17.1569 58.0521 12.8471C58.0521 8.5098 61.0255 5.4902 65.1071 5.4902C67.1614 5.4902 68.7562 6.25882 69.8104 7.65882V5.6ZM65.5666 17.3216C68.0264 17.3216 69.7023 15.4824 69.7023 12.8471C69.7023 10.1843 68.0264 8.37255 65.5666 8.37255C63.2149 8.37255 61.485 10.2667 61.485 12.8471C61.485 15.4274 63.2149 17.3216 65.5666 17.3216Z" fill="white" style="fill:white;fill-opacity:1;"/>
</svg>
